PathFileType  4	(X/Y/Z) C:\Users\antoi\Documents\MyRepositories\mobilecap\ResultsAnalysis
DataRate	CameraRate	NumFrames	NumMarkers	Units	OrigDataRate	OrigDataStartFrame	OrigNumFrames
100.0	100.0	6	51	mm	100.0	1	286
Frame#	Time	r_knee			r_shank_antsup			r_ankle			r_calc			r_5meta			r_toe			L_knee			L_shank_antsup			L_ankle			L_calc			L_5meta			L_toe			r_sh2			r_sh3			r_sh4			L_sh2			L_sh3			r_thigh1			r_thigh2			r_thigh3			r_thigh4			r_thigh5			L_thigh1			L_thigh2			L_thigh3			L_thigh4			r.ASIS			r.PSIS			L.ASIS			L.PSIS			C7			R_Shoulder			L_Shoulder			R_Sternum			L_Sternum			R_humerus			R_elbow_med			R_elbow_lat			R_forearm			R_wrist_radius			R_wrist_ulna			L_humerus			L_elbow_med			L_elbow_lat			L_forearm			L_wrist_radius			L_wrist_ulna			R_HJC			L_HJC			R_HJC_reg			L_HJC_reg			
		X1	Y1	Z1	X2	Y2	Z2	X3	Y3	Z3	X4	Y4	Z4	X5	Y5	Z5	X6	Y6	Z6	X7	Y7	Z7	X8	Y8	Z8	X9	Y9	Z9	X10	Y10	Z10	X11	Y11	Z11	X12	Y12	Z12	X13	Y13	Z13	X14	Y14	Z14	X15	Y15	Z15	X16	Y16	Z16	X17	Y17	Z17	X18	Y18	Z18	X19	Y19	Z19	X20	Y20	Z20	X21	Y21	Z21	X22	Y22	Z22	X23	Y23	Z23	X24	Y24	Z24	X25	Y25	Z25	X26	Y26	Z26	X27	Y27	Z27	X28	Y28	Z28	X29	Y29	Z29	X30	Y30	Z30	X31	Y31	Z31	X32	Y32	Z32	X33	Y33	Z33	X34	Y34	Z34	X35	Y35	Z35	X36	Y36	Z36	X37	Y37	Z37	X38	Y38	Z38	X39	Y39	Z39	X40	Y40	Z40	X41	Y41	Z41	X42	Y42	Z42	X43	Y43	Z43	X44	Y44	Z44	X45	Y45	Z45	X46	Y46	Z46	X47	Y47	Z47	X48	Y48	Z48	X49	Y49	Z49	X50	Y50	Z50	X51	Y51	Z51	

1	0.00000000	-1212.05020	914.07641	-418.99062	-1203.42706	763.55783	-419.94232	-1310.88721	409.57047	-419.64372	-1368.42371	381.99093	-484.30302	-1177.07422	349.95811	-385.23153	-1138.09497	374.42116	-436.80291	-1217.70287	909.51100	-758.34183	-1197.61719	705.01191	-738.87708	-1326.51512	425.11386	-728.96903	-1377.15699	386.74233	-658.67792	-1197.57840	337.70807	-782.64580	-1148.31408	372.28746	-734.85041	-1221.69007	650.38490	-424.88010	-1268.38631	770.27305	-383.64989	-1289.83898	661.75121	-377.23917	-1268.60230	725.87089	-787.75033	-1297.79017	611.44926	-768.37692	-1166.94175	1209.42436	-392.78966	-1153.26739	1097.84206	-395.38283	-1214.87244	1068.16429	-387.29670	-1275.33484	1197.57131	-423.55034	-1264.52198	1080.88880	-410.95854	-1146.60273	1208.22818	-776.85607	-1150.78261	1071.50079	-771.32067	-1255.89607	1215.43338	-774.69517	-1258.60775	1075.01496	-779.81322	-1114.34828	1491.33258	-459.59652	-1304.53163	1517.96258	-541.25380	-1132.46827	1479.39784	-729.22075	-1308.72084	1519.69046	-633.63983	-1256.17757	2005.94413	-609.16907	-1179.12756	1967.58276	-432.46139	-1200.81443	1977.45862	-783.28377	-1109.84288	1926.33761	-578.47586	-1109.92168	1927.43903	-628.74605	-1214.49286	1699.38926	-359.39526	-1304.91117	1596.13114	-412.58133	-1298.83972	1611.31235	-325.84034	-1187.32575	1426.36726	-314.65645	-1144.18960	1341.97658	-322.23829	-1172.80870	1334.55987	-298.04199	-1197.61488	1683.28856	-835.80801	-1293.94973	1607.43710	-796.64982	-1260.46439	1601.89513	-866.54730	-1158.37282	1420.79453	-865.03969	-1124.41303	1351.01248	-846.79276	-1146.74514	1346.85126	-874.00784	-1194.80169	1394.76242	-489.68983	-1210.83455	1390.64358	-686.47127	-1185.40016	1399.59064	-496.52215	-1193.48569	1402.92560	-674.83502	
2	0.01000000	-1210.89764	913.85905	-418.90498	-1202.36099	763.30928	-419.88325	-1310.90219	409.55912	-419.64170	-1368.50897	381.94919	-484.34212	-1177.11487	349.99061	-385.25533	-1138.16732	374.51715	-436.80779	-1216.08004	908.89610	-758.29670	-1196.47200	704.43460	-738.98739	-1326.50198	425.07836	-728.91831	-1377.29835	386.58384	-658.45948	-1197.55716	337.88228	-782.62001	-1148.33844	372.42848	-734.81233	-1221.22253	650.21753	-424.97194	-1267.61386	769.69178	-383.93248	-1289.39180	661.56771	-376.86825	-1267.45417	725.46763	-787.76475	-1296.91242	611.18666	-768.40322	-1166.18096	1209.16310	-392.62659	-1152.44452	1097.59281	-395.40409	-1213.92866	1067.76103	-387.31331	-1274.96367	1197.22534	-423.11933	-1263.78120	1080.58185	-410.67542	-1149.32235	1206.22121	-779.52936	-1149.61289	1071.18859	-771.49213	-1258.77760	1210.37327	-777.25804	-1257.48028	1074.09333	-779.92219	-1114.50685	1490.96974	-459.77165	-1304.53691	1517.81193	-541.20628	-1132.25582	1478.79834	-729.09097	-1308.59131	1519.45943	-633.82017	-1255.17471	2005.80465	-609.31717	-1178.11884	1967.40452	-432.30387	-1200.06445	1977.20814	-782.89853	-1109.08622	1925.99740	-578.97849	-1109.09039	1927.11176	-628.96571	-1214.36820	1699.41383	-359.20074	-1305.06017	1596.27105	-412.31673	-1298.97969	1611.46062	-325.58013	-1186.63847	1427.08074	-314.48253	-1142.85336	1343.07848	-322.30441	-1171.51332	1335.48632	-297.99351	-1198.00380	1683.23930	-836.70990	-1294.89426	1607.80542	-797.95982	-1261.38966	1602.23492	-867.43258	-1158.33673	1421.44759	-865.17902	-1123.92483	1352.19967	-846.89427	-1146.28099	1347.57527	-874.23260	-1195.00010	1394.48923	-489.61966	-1210.88077	1390.21371	-686.41022	-1185.65221	1399.39908	-496.65986	-1193.45025	1402.56816	-674.77852	
3	0.02000000	-1209.68781	913.47147	-418.96572	-1201.34811	762.95421	-419.78427	-1310.91414	409.54411	-419.63534	-1368.59001	381.89788	-484.37769	-1177.17366	350.04035	-385.28293	-1138.25153	374.63340	-436.81554	-1214.47200	908.27622	-758.40365	-1195.42617	703.77503	-739.01417	-1326.44947	425.04194	-728.80942	-1377.43564	386.44455	-658.36995	-1197.57242	338.05656	-782.64063	-1148.40907	372.61988	-734.85711	-1220.54437	650.14444	-425.13200	-1266.64431	769.38560	-383.89481	-1288.67439	661.31273	-376.55982	-1266.33221	725.08790	-787.87844	-1296.23629	610.85121	-768.22239	-1165.85167	1209.00519	-392.33067	-1151.86823	1097.46718	-395.18685	-1213.00647	1067.47425	-387.21502	-1274.49481	1196.80306	-422.78199	-1262.99192	1080.24822	-410.41703	-1149.17816	1205.27680	-780.05348	-1148.49667	1070.75177	-771.62656	-1258.63757	1208.62252	-777.69220	-1256.32203	1073.29684	-780.11079	-1114.65314	1490.61441	-459.70813	-1304.51952	1517.65478	-541.29222	-1132.12580	1477.91610	-729.00390	-1308.47921	1519.11995	-634.00007	-1254.12478	2005.61581	-609.43855	-1176.99258	1967.09748	-432.32645	-1199.09712	1976.98588	-782.90363	-1108.17595	1925.65199	-579.05356	-1108.21204	1926.66197	-629.03730	-1214.24165	1699.45572	-358.96175	-1305.12600	1596.49244	-412.00231	-1299.12057	1611.60634	-325.24673	-1185.90715	1427.84916	-314.19454	-1141.52023	1344.19993	-322.35173	-1170.12845	1336.36394	-298.02763	-1198.62152	1683.26217	-837.49437	-1295.87568	1608.15949	-799.01555	-1262.41693	1602.63491	-868.49255	-1158.25470	1422.31795	-865.63980	-1123.32057	1353.45327	-847.06061	-1145.70573	1348.52363	-874.50090	-1195.27693	1394.22568	-489.40960	-1210.98014	1389.57662	-686.20565	-1185.92565	1399.11033	-496.47789	-1193.53336	1401.92518	-674.59930	
4	0.03000000	-1208.30972	913.03829	-418.95745	-1200.29567	762.49497	-419.67424	-1310.91971	409.52976	-419.62221	-1368.66648	381.81013	-484.35440	-1177.21625	350.08104	-385.30123	-1138.32052	374.72793	-436.82185	-1212.89649	907.67786	-758.54639	-1194.45619	703.04109	-739.04248	-1326.44578	424.93174	-728.62905	-1377.56067	386.30354	-658.36584	-1197.66326	338.18272	-782.54531	-1148.56785	372.77826	-734.84138	-1219.73795	650.06159	-425.33110	-1265.41795	769.26132	-383.61607	-1287.63911	661.05531	-376.42994	-1265.34431	724.67216	-787.95955	-1295.72306	610.56154	-768.03478	-1165.69098	1208.89224	-391.82998	-1151.22013	1097.42012	-394.78492	-1212.02175	1067.21908	-387.01134	-1273.90163	1196.29782	-422.44432	-1262.02494	1079.77215	-410.20359	-1147.21362	1204.99021	-779.24903	-1147.39196	1070.19682	-771.62349	-1256.63447	1209.03067	-777.16268	-1255.27212	1072.56982	-780.33893	-1114.69040	1490.34956	-459.33450	-1304.50191	1517.45534	-541.49662	-1132.01667	1476.99180	-728.95251	-1308.38629	1518.68743	-634.19305	-1253.02750	2005.36964	-609.56286	-1175.76134	1966.67574	-432.44719	-1197.93863	1976.74639	-783.16304	-1107.14628	1925.23043	-578.85872	-1107.26598	1926.06484	-629.08241	-1214.11901	1699.47480	-358.64691	-1305.62249	1596.60920	-411.44581	-1299.32205	1611.80310	-324.72408	-1185.09897	1428.71830	-313.93167	-1140.23414	1345.29866	-322.36487	-1168.64047	1337.28679	-297.93808	-1199.42025	1683.39517	-838.33376	-1296.95212	1608.49099	-799.92689	-1263.55972	1603.01731	-869.68739	-1158.11915	1423.40768	-866.28520	-1122.61369	1354.79356	-847.21203	-1145.17872	1349.37010	-873.96142	-1195.50480	1394.00425	-489.10411	-1210.98426	1388.87069	-685.90581	-1186.09975	1398.75274	-495.98296	-1193.57352	1401.12289	-674.34339	
5	0.04000000	-1206.65832	912.84008	-418.46454	-1199.08550	761.94453	-419.60894	-1310.92043	409.52170	-419.60793	-1368.74667	381.69434	-484.27426	-1177.22573	350.09192	-385.30288	-1138.36612	374.78786	-436.82715	-1211.33671	907.11659	-758.66447	-1193.51760	702.33485	-739.13907	-1326.56907	424.69172	-728.40081	-1377.66053	386.15365	-658.34257	-1197.79519	338.29015	-782.32432	-1148.75895	372.86362	-734.74295	-1218.93711	649.76830	-425.45855	-1264.00899	769.04457	-383.37672	-1286.43654	660.49483	-376.58136	-1264.46438	724.18256	-787.93373	-1295.23426	610.32481	-768.04000	-1165.05867	1208.70406	-391.44024	-1150.13852	1097.29714	-394.57955	-1210.88821	1066.88872	-386.74267	-1273.25751	1195.75685	-422.03106	-1260.88814	1079.22220	-409.97640	-1145.59711	1204.59099	-778.63700	-1146.27535	1069.65558	-771.47805	-1255.19087	1209.12392	-777.48885	-1254.31939	1071.79147	-780.51951	-1114.72305	1490.10515	-459.06578	-1304.51517	1517.19160	-541.71507	-1131.86323	1476.31199	-728.89291	-1308.30419	1518.26790	-634.38149	-1251.88694	2005.07709	-609.66518	-1174.46212	1966.24638	-432.55267	-1196.78027	1976.39221	-783.21875	-1106.09236	1924.62502	-578.84326	-1106.26369	1925.41640	-629.35945	-1214.00805	1699.44040	-358.27954	-1306.74293	1596.60552	-410.63273	-1299.59812	1612.14287	-324.03802	-1184.20718	1429.66493	-313.74962	-1138.97109	1346.37412	-322.41738	-1167.06088	1338.33644	-297.68688	-1200.25486	1683.47422	-839.32248	-1298.13876	1608.82435	-800.99127	-1264.78408	1603.34885	-870.94935	-1157.91680	1424.55118	-866.78452	-1121.85518	1356.26751	-847.26707	-1144.64433	1350.17045	-872.89051	-1195.64210	1393.76401	-488.91932	-1210.88956	1388.30549	-685.73067	-1186.20019	1398.42797	-495.66613	-1193.49958	1400.50165	-674.18184	
6	0.05000000	-1204.84784	912.76347	-417.74553	-1197.73947	761.36207	-419.55692	-1310.92033	409.51673	-419.59840	-1368.82763	381.59734	-484.19850	-1177.23039	350.08815	-385.29782	-1138.41177	374.84658	-436.83400	-1209.74276	906.58843	-758.84637	-1192.59842	701.70239	-739.21352	-1326.72777	424.42718	-728.19443	-1377.74515	386.01092	-658.25004	-1197.86739	338.48533	-782.25459	-1148.89189	372.93425	-734.67771	-1218.10842	649.22751	-425.42968	-1262.54262	768.68435	-383.20880	-1285.29930	659.64367	-376.75636	-1263.50161	723.72601	-787.96009	-1294.72293	610.00174	-768.07304	-1163.83486	1208.45528	-391.41895	-1148.78512	1097.06669	-394.70339	-1209.64566	1066.47830	-386.47698	-1272.59680	1195.18478	-421.66453	-1259.71613	1078.84033	-409.72030	-1144.62591	1204.16269	-778.26004	-1145.18669	1069.22078	-771.32737	-1254.52936	1208.47262	-778.12868	-1253.28562	1070.94764	-780.64759	-1114.91055	1489.77726	-459.21878	-1304.55602	1516.89538	-541.90359	-1131.70756	1475.80204	-728.76049	-1308.23524	1517.90962	-634.47878	-1250.66657	2004.79229	-609.75373	-1173.10146	1965.83074	-432.66949	-1195.66524	1975.97173	-783.08885	-1105.00955	1923.87792	-579.13398	-1105.22569	1924.80786	-629.78280	-1213.91808	1699.36565	-357.92991	-1307.89088	1596.67125	-409.85777	-1299.86505	1612.58062	-323.40658	-1183.27158	1430.59092	-313.51600	-1137.61436	1347.55775	-322.56286	-1165.38364	1339.48694	-297.49875	-1201.09561	1683.39982	-840.41512	-1299.38395	1609.19208	-802.28496	-1266.06584	1603.70500	-872.29669	-1157.61533	1425.63700	-867.04216	-1121.02519	1357.91643	-847.26736	-1143.71074	1351.55001	-872.96339	-1195.79021	1393.45341	-488.90314	-1210.85463	1387.86418	-685.72494	-1186.35759	1398.19566	-495.78826	-1193.44509	1400.14971	-674.11794	
